<svg xmlns="http://www.w3.org/2000/svg" xmlns:xlink="http://www.w3.org/1999/xlink" width="725.954" height="592" viewBox="0 0 725.954 592">
  <defs>
    <linearGradient id="linear-gradient" x1="0.5" y1="1" x2="0.5" gradientUnits="objectBoundingBox">
      <stop offset="0" stop-color="gray" stop-opacity="0.251"/>
      <stop offset="0.54" stop-color="gray" stop-opacity="0.122"/>
      <stop offset="1" stop-color="gray" stop-opacity="0.102"/>
    </linearGradient>
  </defs>
  <g id="undraw_staying_in_i80u" transform="translate(-0.004 0.014)">
    <path id="Path_3" data-name="Path 3" d="M149.543,352.782c26.757,45.738,21.717,107.146,9.935,155.379-3.946,16.143-8.484,33.184-5.106,51.428,4.107,22.315,19.1,40.121,34.285,50.421,27.669,18.806,59.277,19.018,82.285.554,19.886-15.961,32.98-44.279,53.252-59.343,33.979-25.269,80.505-8.418,120.955,16.8,28.617,17.843,60.1,40.34,86.545,28.617,18.609-8.25,30.215-32.462,35.642-58.971,2.619-12.8,4.2-26.808,10.213-36.474,3.567-5.748,8.477-9.534,13.554-12.605C637.5,460.5,700.247,486.306,745.022,454.3c30.222-21.6,47.416-67.236,53.084-116.33s1.05-101.864-4.749-153.854c-4.122-36.948-9.7-76.537-28.26-106.934-19.63-32.163-50.589-47.029-77.507-44.68s-50.319,19.645-70.453,40.9c-25.189,26.575-47.9,60.729-80.49,68.739-22.191,5.456-46.431-2-70.03-6.441-39.392-7.433-78.251-6.441-116.833-4.873-36.933,1.5-74.093,3.589-108.517,16.362-24.357,9.038-43.039,28.581-65.784,41.048-14.816,8.126-31.528,8.819-45.337,19.791-17.011,13.517-31.732,38.845-24.934,71.445C111.683,310.458,135.318,328.505,149.543,352.782Z" transform="translate(-74.728 -32.279)" fill="#6c63ff" opacity="0.1"/>
    <path id="Path_4" data-name="Path 4" d="M79.921,256.47S43.769,312.946,162.3,313.93c0,0,1.743-49.152-37.006-69.4a34.767,34.767,0,0,0-44.819,11.1Z" transform="translate(-74.728 -32.279)" fill="#6c63ff"/>
    <path id="Path_5" data-name="Path 5" d="M80.191,255.521s60.714,11.963,82.11,58.409" transform="translate(-74.728 -32.279)" fill="none" stroke="#535461" stroke-miterlimit="10" stroke-width="0.729"/>
    <path id="Path_6" data-name="Path 6" d="M167.6,306.329s-38.983-50.378-35.423-100.04a96.757,96.757,0,0,0-14.743-59.241A162.307,162.307,0,0,0,99.114,123.7" transform="translate(-74.728 -32.279)" fill="none" stroke="#535461" stroke-miterlimit="10" stroke-width="1.459"/>
    <path id="Path_7" data-name="Path 7" d="M101.157,92.388c2.721,6.974-2.013,32.133-2.013,32.133S78.616,109.2,75.895,102.251a13.56,13.56,0,1,1,25.263-9.863Z" transform="translate(-74.728 -32.279)" fill="#6c63ff"/>
    <path id="Path_8" data-name="Path 8" d="M137.142,122.88c-1.5,7.339-19.156,25.882-19.156,25.882s-8.914-24-7.411-31.368a13.564,13.564,0,0,1,26.568,5.486Z" transform="translate(-74.728 -32.279)" fill="#6c63ff"/>
    <path id="Path_9" data-name="Path 9" d="M161.944,189.263c-5,5.573-29.595,12.671-29.595,12.671s4.421-25.218,9.418-30.791a13.56,13.56,0,1,1,20.178,18.121Z" transform="translate(-74.728 -32.279)" fill="#6c63ff"/>
    <path id="Path_10" data-name="Path 10" d="M169.479,243.726c-3.99,6.339-27.034,17.507-27.034,17.507s.095-25.6,4.085-31.937a13.56,13.56,0,1,1,22.952,14.445Z" transform="translate(-74.728 -32.279)" fill="#6c63ff"/>
    <path id="Path_11" data-name="Path 11" d="M91.972,160.485c6.9,2.918,32.177-1.153,32.177-1.153s-14.728-20.951-21.651-23.861a13.569,13.569,0,1,0-10.526,25.014Z" transform="translate(-74.728 -32.279)" fill="#6c63ff"/>
    <path id="Path_12" data-name="Path 12" d="M101.55,224.044c7.455.729,30.354-10.731,30.354-10.731s-20.294-15.552-27.786-16.26a13.561,13.561,0,0,0-2.568,26.991Z" transform="translate(-74.728 -32.279)" fill="#6c63ff"/>
    <path id="Path_13" data-name="Path 13" d="M119.342,284.569c7.229,1.962,31.732-5.449,31.732-5.449S133.662,260.35,126.433,258.4a13.56,13.56,0,1,0-7.091,26.176Z" transform="translate(-74.728 -32.279)" fill="#6c63ff"/>
    <path id="Path_14" data-name="Path 14" d="M101.157,92.388c2.721,6.974-2.013,32.133-2.013,32.133S78.616,109.2,75.895,102.251a13.56,13.56,0,1,1,25.263-9.863Z" transform="translate(-74.728 -32.279)" opacity="0.25"/>
    <path id="Path_15" data-name="Path 15" d="M137.142,122.88c-1.5,7.339-19.156,25.882-19.156,25.882s-8.914-24-7.411-31.368a13.564,13.564,0,0,1,26.568,5.486Z" transform="translate(-74.728 -32.279)" opacity="0.25"/>
    <path id="Path_16" data-name="Path 16" d="M161.944,189.263c-5,5.573-29.595,12.671-29.595,12.671s4.421-25.218,9.418-30.791a13.56,13.56,0,1,1,20.178,18.121Z" transform="translate(-74.728 -32.279)" opacity="0.25"/>
    <path id="Path_17" data-name="Path 17" d="M169.479,243.726c-3.99,6.339-27.034,17.507-27.034,17.507s.095-25.6,4.085-31.937a13.56,13.56,0,1,1,22.952,14.445Z" transform="translate(-74.728 -32.279)" opacity="0.25"/>
    <path id="Path_18" data-name="Path 18" d="M91.972,160.485c6.9,2.918,32.177-1.153,32.177-1.153s-14.728-20.951-21.651-23.861a13.569,13.569,0,1,0-10.526,25.014Z" transform="translate(-74.728 -32.279)" opacity="0.25"/>
    <path id="Path_19" data-name="Path 19" d="M101.55,224.044c7.455.729,30.354-10.731,30.354-10.731s-20.294-15.552-27.786-16.26a13.561,13.561,0,0,0-2.568,26.991Z" transform="translate(-74.728 -32.279)" opacity="0.25"/>
    <path id="Path_20" data-name="Path 20" d="M119.342,284.569c7.229,1.962,31.732-5.449,31.732-5.449S133.662,260.35,126.433,258.4a13.56,13.56,0,1,0-7.091,26.176Z" transform="translate(-74.728 -32.279)" opacity="0.25"/>
    <path id="Path_21" data-name="Path 21" d="M89.726,102.163V351.52l331.766-64.449L415.153,95.824Z" fill="#5f546f"/>
    <path id="Path_22" data-name="Path 22" d="M89.726,102.163V351.52l331.766-64.449L415.153,95.824Z" opacity="0.1"/>
    <path id="Path_23" data-name="Path 23" d="M713.377,396.164v82.416L362.594,581.065l-3.582-1.853L81.534,435.257V94.5l343.394-11.1,2.115,189.131-13.736,4.231-5.281-176.9L105.84,110.355l-2.115,256.222,263.093,115.17.2-.044Z" fill="#5f546f"/>
    <path id="Path_24" data-name="Path 24" d="M713.377,396.164v82.416L362.594,581.065l-3.582-1.853,8-97.509Z" opacity="0.1"/>
    <path id="Path_25" data-name="Path 25" d="M365.205,308.78s-169.837,16.946-186.352,41.493-.131,54.66-.131,54.66L441.283,519.045l356.072-91.914s-9.483-64.449-39.093-71.846S493.054,297.16,493.054,297.16,397.959,291.346,365.205,308.78Z" transform="translate(-74.728 -32.279)" fill="#ebecf0"/>
    <path id="Path_26" data-name="Path 26" d="M178.722,350.514l267.842,92.454s285.692-86.64,326.164-78.455c0,0-199.877-71.525-279.674-68.418-63.618,2.48-130.226,12.926-130.226,12.926S186.111,326.747,178.722,350.514Z" transform="translate(-74.728 -32.279)" fill="#f8f9fa"/>
    <rect id="Rectangle_30" data-name="Rectangle 30" width="152.461" height="108.597" rx="21.884" transform="matrix(0.765, -0.644, 0.644, 0.765, 117.615, 251.936)" fill="#6c63ff"/>
    <rect id="Rectangle_31" data-name="Rectangle 31" width="152.461" height="108.597" rx="21.884" transform="matrix(0.765, -0.644, 0.644, 0.765, 117.611, 252.661)" opacity="0.1"/>
    <rect id="Rectangle_32" data-name="Rectangle 32" width="142.467" height="101.47" rx="21.884" transform="matrix(0.765, -0.644, 0.644, 0.765, 123.73, 251.438)" fill="#6c63ff"/>
    <path id="Path_27" data-name="Path 27" d="M233.206,310.13c2.086-2.83,4.377-5.836,7.623-7.091,1.9-.729,4.027-.861,5.909-1.656,3.954-1.678,6.084-5.938,7.528-9.987s2.67-8.425,5.836-11.329" transform="translate(-74.728 -32.279)" opacity="0.05"/>
    <path id="Path_28" data-name="Path 28" d="M251.422,317c2.086-2.83,4.377-5.836,7.623-7.091,1.9-.729,4.027-.861,5.909-1.656,3.954-1.678,6.084-5.938,7.528-9.987s2.67-8.425,5.836-11.329" transform="translate(-74.728 -32.279)" opacity="0.05"/>
    <path id="Path_29" data-name="Path 29" d="M291.222,257.965c2.086-2.83,4.377-5.836,7.623-7.091,1.9-.729,4.027-.861,5.909-1.656,3.954-1.678,6.084-5.938,7.528-9.987s2.67-8.425,5.836-11.329" transform="translate(-74.728 -32.279)" opacity="0.05"/>
    <path id="Path_30" data-name="Path 30" d="M298.2,305.031c2.086-2.83,4.377-5.836,7.623-7.091,1.9-.729,4.027-.861,5.909-1.656,3.954-1.678,6.084-5.938,7.528-9.987s2.67-8.425,5.836-11.329" transform="translate(-74.728 -32.279)" opacity="0.1"/>
    <rect id="Rectangle_33" data-name="Rectangle 33" width="152.461" height="108.597" rx="21.884" transform="matrix(0.765, -0.644, 0.644, 0.765, 250.386, 235.886)" fill="#6c63ff"/>
    <rect id="Rectangle_34" data-name="Rectangle 34" width="152.461" height="108.597" rx="21.884" transform="matrix(0.765, -0.644, 0.644, 0.765, 250.386, 235.886)" opacity="0.1"/>
    <rect id="Rectangle_35" data-name="Rectangle 35" width="142.467" height="101.47" rx="21.884" transform="matrix(0.765, -0.644, 0.644, 0.765, 256.501, 235.388)" fill="#6c63ff"/>
    <path id="Path_31" data-name="Path 31" d="M365.971,294.081c2.086-2.83,4.377-5.836,7.623-7.091,1.9-.729,4.027-.861,5.909-1.656,3.954-1.678,6.084-5.938,7.528-9.987s2.67-8.425,5.836-11.329" transform="translate(-74.728 -32.279)" opacity="0.05"/>
    <path id="Path_32" data-name="Path 32" d="M384.186,300.953c2.086-2.83,4.377-5.836,7.623-7.091,1.9-.729,4.027-.861,5.909-1.656,3.954-1.678,6.084-5.938,7.528-9.987s2.67-8.425,5.836-11.329" transform="translate(-74.728 -32.279)" opacity="0.05"/>
    <path id="Path_33" data-name="Path 33" d="M423.987,241.916c2.086-2.83,4.377-5.836,7.623-7.091,1.9-.729,4.027-.861,5.909-1.656,3.954-1.678,6.084-5.938,7.528-9.987s2.67-8.425,5.836-11.329" transform="translate(-74.728 -32.279)" opacity="0.05"/>
    <path id="Path_34" data-name="Path 34" d="M430.968,288.982c2.086-2.83,4.377-5.836,7.623-7.091,1.9-.729,4.027-.861,5.909-1.656,3.954-1.678,6.084-5.938,7.528-9.987s2.67-8.425,5.836-11.329" transform="translate(-74.728 -32.279)" opacity="0.1"/>
    <path id="Path_35" data-name="Path 35" d="M762.938,494.906a6.514,6.514,0,0,0-4.873-4.807c-20.52-5.106-38.991-44.1-38.991-44.1s-.729-7.426-5.938-18.565c-2.429-5.2-4.2-13.955-5.413-21.819,6.631-2.991,11.672-6.325,8.382-8.63a16.589,16.589,0,0,0-6.069-2.546l-2.1-11.562c.729-8.17-5.2-35.65-5.2-35.65l-5.143-42.616a2.749,2.749,0,0,0-.328-2.648v-.058l-.139-.233-.066-.095-.153-.226-.088-.117-.277-.343-.182-.212-.153-.16-.219-.226-.168-.16-.263-.241-.175-.153-.343-.285-.153-.124a11.139,11.139,0,0,0-1.211-.868l-.124-.08-.584-.372-.19-.117-.605-.357-.2-.117-.729-.394-.153-.08q-.941-.489-2.05-.992l-.182-.08-.948-.416-.328-.139-.9-.372-.379-.153-1-.379-.357-.139-1.459-.518c-.489-.168-.963-.321-1.459-.467l-.518-.146-.868-.241-.562-.139-.781-.175-.532-.109-.8-.139-.43-.073q-.591-.088-1.16-.146h-.233l-.9-.066h-2.458l-.854.088h-.065q-.481.066-.934.153h-.08l-.729.175-.219.058-.576.175-.248.08-.5.182-.255.1h-.08l-.175.08c-6.266,2.188-17.15,3.91-28.807,5.208-2.283-7.893-4.224-15.728-4.756-21.016-1.459-14.852-8.914-31.937-8.914-31.937a2.614,2.614,0,0,1-.3.554,3.161,3.161,0,0,0-.1-.584c-1.05-5.354-4.705-7.295-16.683-11.854-11.672-4.45-17.106,2.342-19.1,6.033-.117.212-.211.409-.306.6l-1.386-.686-17.084,23.022-.46.846-11.672,22.847-.394.773-.16.109L541.454,325.15c-9.272-4.654-24.365-4.654-24.365-4.654l-7.426-6.682-18.58-22.286a127.659,127.659,0,0,0-6.711-17.828c-2.4-5.2-3.72-13.2-4.435-19.477a34.24,34.24,0,0,0,4.435-8.024l-.409-.533c.139-.314.277-.627.409-.948,0,0-14.852-19.309-14.852-26.735s-41.58-13.371-41.58-13.371-.036.146-.109.387a15.633,15.633,0,0,1-4.377-3.779c-.2-.255-.409-.533-.605-.817a29.7,29.7,0,0,0,6.186-9.994,8.841,8.841,0,0,0,4.194,1.065c1.846,0,4.078-1.277,3.72-3.086h0a1.882,1.882,0,0,0,0-.729c-.2-1.043-1.189-1.707-1.955-2.444a5.275,5.275,0,0,1-1.546-3.159,2.867,2.867,0,0,1,.81-1.787,20.5,20.5,0,0,1,2.086-1.415c1.707-1.335,1.97-3.728,1.919-5.938v-1.379a106.128,106.128,0,0,0-1.663-14.531,23.7,23.7,0,0,0-.9-3.647,26.7,26.7,0,0,0-2.429-4.72l-7.236-12.014a14.5,14.5,0,0,0-3.312-4.209c-5.055-3.888-10.942.846-15.771-1.889-2.524-1.415-4.333-3.21-7.295-3.888a24.141,24.141,0,0,0-10.439.423,4.917,4.917,0,0,0-2.553,1.131c-.956.985-.97,2.509-1.335,3.83-.729,2.553-2.845,4.457-5.106,5.836s-4.749,2.385-6.857,3.99c-3.852,2.918-6.047,7.455-8.622,11.548A59.46,59.46,0,0,1,352,167.78a1.8,1.8,0,0,0,.314.474l-.314.27c.729,1.67,3.356,1.182,4.815,2.3a2.721,2.721,0,0,1,1.036,2.021,9.4,9.4,0,0,1-1.029,3.334,8.985,8.985,0,0,0-1.24,4.45,3.093,3.093,0,0,0,.729,2.48,11.48,11.48,0,0,1,1.32,1.233,1.875,1.875,0,0,1,.3.729c-.212,1.357-1.393,2.845-1.517,4.333a3.035,3.035,0,0,0,0,.627v.117c-.168,1.991,1.634,3.6,3.443,4.45,1.678.8,3.56,1.313,4.917,2.546-.978,1.423-1.882,3.093-1.722,4.661a3.443,3.443,0,0,0,.328,1.889c1.153,2.312,4.435,2.327,6.945,1.714a3.538,3.538,0,0,1,2.028-.109,4.632,4.632,0,0,1,1.51,1.24c2.728,2.677,7.98,1.678,9.673-1.7l-.131.547c-.226.919-.481,1.86-.729,2.823v-.613s-14.064,3.29-25.138,5.69a22.709,22.709,0,0,0-15.078,11.263l-10.286,18.7s.109.314.35.846l-.35.642a21.229,21.229,0,0,0,2.444,4.494c-4.69,11.059-14.59,32.666-23.241,40.807a51.633,51.633,0,0,1-4.428,3.735,11.314,11.314,0,0,0-5.026,1.036,12.7,12.7,0,0,0-4.552,3.647,6.8,6.8,0,0,1-3.815-.212s-8.513,6.7-14,13.933c-1.131.409-2.254.824-3.356,1.284-5.055,2.13-10.169,6.252-10.118,11.737,0,3.852,2.641,7.295,3.925,10.942l-3.188,3.72s-6.682,5.2-12.627,6.682-17.843,11.081-17.843,11.081l-22.278,15.6-2.349,1.51a130.325,130.325,0,0,1-9.534-17.106s-8.17-14.852-17.084,1.459l-.27.489a27.953,27.953,0,0,0-2.881,8.4c-10.453-5.106-15.523,14.852-16.165,19.338-.146,1.014-1.51,5.916.292,10.008a44.345,44.345,0,0,0,27.29,24.707,36.921,36.921,0,0,0,3.647.926c11.139,2.225,18.565-14.108,18.565-14.108l.233-2.349a34.342,34.342,0,0,0,5.106.146c1.087-.051,2.188-.058,3.407,0a44.025,44.025,0,0,0,17.427-3.232l9.483-3.8,1.583-.635c-.044.314-.088.627-.139.948l35.657-11.832s12.182-1.525,25.721-3.516c.423,1.2.817,2.407,1.313,3.582,3.1,7.295,10.213,12.233,17.734,14.626s15.567,2.59,23.467,2.765h2.458a17.815,17.815,0,0,0,7.579-1.094c2.648-1.182,4.822-3.954,4.326-6.813-.387-2.232-2.188-3.888-3.866-5.42-3.217-2.976-6.288-6.288-7.908-10.359a15.229,15.229,0,0,1-.839-2.962,16.325,16.325,0,0,0,7.244,3.99c14.852,3.713,40.851,7.426,48.27,5.2s25.991-6.682,54.215,0,36.386,4.457,36.386,4.457l-.124-.182c7.4,1.729,18.055,3.283,28.136,1.371a152.294,152.294,0,0,1,17.843-2.276c3.786-.263,8.207-.729,12.7-1.459a35.248,35.248,0,0,0,20.7-11.672c14.808,2.006,38.071-6.565,38.071-6.565l3.407-1.773,2.539,6.23S624,395.522,647.024,403.692a167.712,167.712,0,0,0,33.695,8.141c3.742,25.327,8.637,35.671,8.637,35.671l-8.17,11.883c-2.517,10.052,5.106,14.2,12.284,15.9a45.753,45.753,0,0,1,16.625,7.878c10.359,7.7,30.5,15.574,30.5,15.574C761.041,502.9,763.762,498.67,762.938,494.906ZM498.51,329.4l4.6,4.6-1.627-.139-2.86,5.2H484.373c-1.459,0-8.17-5.2-8.17-5.2l-1.9.19,3.385-2.415s4.895-2.648,4.224-12.489Zm-50.852-19.017c-1.24-3.976-2.633-8.294-4.056-12.467.175-1.656.379-3.3.62-4.924l5.274,16.355ZM343.584,287.574a53.184,53.184,0,0,1-5.719,8.207c-.664-.2-1.335-.372-2.013-.533h0S339.331,292.2,343.584,287.574Zm304.921,73.757c-.109-1.029-.248-2.145-.409-3.319l9.315-4.851c5.953,4.464,8.177,17.121,8.914,28.647C663.095,380.342,649.825,373.682,648.505,361.332Z" transform="translate(-74.728 -32.279)" fill="url(#linear-gradient)"/>
    <path id="Path_36" data-name="Path 36" d="M658.389,299.21s4.377-10.942,21.155-5.106,13.911,10.665,13.911,10.665l-2.24,9.76-8.754,5.106-14.59-1.459Z" transform="translate(-74.728 -32.279)" fill="#ffbcc7"/>
    <path id="Path_37" data-name="Path 37" d="M693.587,304.374a1.41,1.41,0,0,1-.131.394l-2.24,9.76-8.754,5.106-14.59-1.459-9.483-18.966a11.555,11.555,0,0,1,6.149-5.7c3.261-1.364,8.075-1.809,15.005.6C693.5,298.954,693.864,303.112,693.587,304.374Z" transform="translate(-74.728 -32.279)" opacity="0.03"/>
    <path id="Path_38" data-name="Path 38" d="M701.429,387.476s2.188,26.991,7.295,37.933,5.836,18.237,5.836,18.237,18.135,38.29,38.3,43.316a6.4,6.4,0,0,1,4.785,4.72c.81,3.7-1.867,7.857-21.928,3.757,0,0-19.783-7.74-29.96-15.319a44.943,44.943,0,0,0-16.333-7.74c-7.018-1.671-14.531-5.748-12.065-15.625l8.024-11.672s-6.565-13.86-10.213-48.875S701.429,387.476,701.429,387.476Z" transform="translate(-74.728 -32.279)" fill="#ffbcc7"/>
    <path id="Path_39" data-name="Path 39" d="M622.645,252.523c0,10.213-36.474-9.483-36.474-9.483a13.734,13.734,0,0,1,.934-2.1c1.962-3.647,7.295-10.293,18.762-5.923,11.759,4.479,15.319,6.383,16.384,11.672a31.315,31.315,0,0,1,.394,5.836Z" transform="translate(-74.728 -32.279)" fill="#ffbcc7"/>
    <path id="Path_40" data-name="Path 40" d="M504.878,223.162l-21.884,42.31-2.043-8.863,1.131-2.218,11.467-22.439.387-.766Z" fill="#ffbcc7"/>
    <path id="Path_41" data-name="Path 41" d="M429.013,306.322l-11.672,25.532-8.024,8.024-3.764-3.961-1.5-1.583-8.593-9.046,8.024-18.966Z" fill="#ffbcc7"/>
    <path id="Path_42" data-name="Path 42" d="M441.735,223.344s-49.6,23.343-51.063,22.614S370.246,240.851,379,223.344a76.947,76.947,0,0,0,5.836-16.048,68.266,68.266,0,0,0,2.188-17.507s30.638-13.86,32.827,2.188a22.85,22.85,0,0,0,4.377,11.256,14.364,14.364,0,0,0,9.483,5.522Z" transform="translate(-74.728 -32.279)" fill="#feb7c5"/>
    <path id="Path_43" data-name="Path 43" d="M222.162,385.288l-2.188,21.884s-7.295,16.048-18.237,13.86a36.228,36.228,0,0,1-3.553-.912,43.557,43.557,0,0,1-26.8-24.27c-1.773-4.019-.423-8.834-.285-9.833.729-5.106,7.295-30.638,21.155-14.59S214.138,395.5,214.138,395.5Z" transform="translate(-74.728 -32.279)" fill="#feb7c5"/>
    <path id="Path_44" data-name="Path 44" d="M341.067,299.939l-62.006,29.179-8.754,10.213s-6.565,5.106-12.4,6.565S240.4,356.838,240.4,356.838l-21.884,15.319L208.3,378.723l10.213,8.024,31.368-7.295,37.933-8.024,19.7-9.483,56.17-48.875Z" transform="translate(-74.728 -32.279)" fill="#5d526d"/>
    <path id="Path_45" data-name="Path 45" d="M222.162,385.288l-2.188,21.884s-7.295,16.048-18.237,13.86a36.228,36.228,0,0,1-3.553-.912,43.557,43.557,0,0,1-26.8-24.27c-1.773-4.019-.423-8.834-.285-9.833.729-5.106,7.295-30.638,21.155-14.59S214.138,395.5,214.138,395.5Z" transform="translate(-74.728 -32.279)" opacity="0.03"/>
    <path id="Path_46" data-name="Path 46" d="M341.067,299.939l-62.006,29.179-8.754,10.213s-6.565,5.106-12.4,6.565S240.4,356.838,240.4,356.838l-21.884,15.319L208.3,378.723l10.213,8.024,31.368-7.295,37.933-8.024,19.7-9.483,56.17-48.875Z" transform="translate(-74.728 -32.279)" opacity="0.05"/>
    <path id="Path_47" data-name="Path 47" d="M265.2,394.042,255.032,398.1l-9.33,3.735a43.243,43.243,0,0,1-17.135,3.144h-3.348a33.322,33.322,0,0,1-23.2-7.9,45.415,45.415,0,0,0-3.808-2.918,27.5,27.5,0,0,1-8.4-35.394l.263-.481c8.754-16.048,16.778-1.459,16.778-1.459s8.024,17.507,13.86,21.884c3.976,2.984,17.084.212,25.043-1.86,3.728-.97,6.325-1.787,6.325-1.787Z" transform="translate(-74.728 -32.279)" fill="#feb7c5"/>
    <path id="Path_48" data-name="Path 48" d="M255.032,398.1c2.378-15.6-3.647-20.185-9.286-21.242,3.728-.97,6.325-1.787,6.325-1.787L265.2,394.042Z" transform="translate(-74.728 -32.279)" opacity="0.1"/>
    <path id="Path_49" data-name="Path 49" d="M375.352,307.963l-75.866,53.252s-19.7,11.672-26.991,8.754-33.556,7.295-33.556,7.295,21.884-6.565,17.507,21.155l35.015-11.672s52.522-6.565,59.817-10.213,37.933-66.382,37.933-66.382Z" transform="translate(-74.728 -32.279)" fill="#5d526d"/>
    <path id="Path_50" data-name="Path 50" d="M478.938,245.958s.729,18.966,5.106,28.45a125.387,125.387,0,0,1,6.565,17.507L508.847,313.8l7.295,6.565s27.72,0,30.638,11.672-42.31,3.647-42.31,3.647l-6.565-6.565-30.638-18.966L449.759,256.9Z" transform="translate(-74.728 -32.279)" fill="#feb7c5"/>
    <path id="Path_51" data-name="Path 51" d="M339.608,243.769s-13.86,35.744-25.532,46.687-17.507,8.024-17.507,8.024-30.638,24.073-12.4,29.909,27.72-19.7,27.72-19.7l26.261-13.131s24.073-21.155,22.614-36.474S339.608,243.769,339.608,243.769Z" transform="translate(-74.728 -32.279)" fill="#feb7c5"/>
    <path id="Path_52" data-name="Path 52" d="M339.608,243.769s-13.86,35.744-25.532,46.687-17.507,8.024-17.507,8.024-30.638,24.073-12.4,29.909,27.72-19.7,27.72-19.7l26.261-13.131s24.073-21.155,22.614-36.474S339.608,243.769,339.608,243.769Z" transform="translate(-74.728 -32.279)" opacity="0.03"/>
    <path id="Path_53" data-name="Path 53" d="M398.375,225.481c-5.405.277-14.042,2.706-14.269-14.538,0,0-13.816,3.232-24.693,5.588A22.307,22.307,0,0,0,344.6,227.6l-10.1,18.361s4.377,12.4,18.237,13.86c0,0,2.918,29.179-23.343,47.416S397.229,351,397.229,351l46.687-15.319s-5.106-52.522,10.213-66.382c0,0,21.884-1.459,29.909-21.884,0,0-14.59-18.966-14.59-26.261S428.6,208.025,428.6,208.025s-4.946,19.988-22.169,17.712a44.062,44.062,0,0,0-8.053-.255Z" transform="translate(-74.728 -32.279)" opacity="0.1"/>
    <path id="Path_54" data-name="Path 54" d="M398.375,224.022c-5.405.277-14.042,2.706-14.269-14.538,0,0-13.816,3.232-24.693,5.588A22.308,22.308,0,0,0,344.6,226.138l-10.1,18.361s4.377,12.4,18.237,13.86c0,0,2.918,29.179-23.343,47.416s67.841,43.769,67.841,43.769l46.687-15.319s-5.106-52.522,10.213-66.382c0,0,21.884-1.459,29.909-21.884,0,0-14.59-18.966-14.59-26.261S428.6,206.566,428.6,206.566s-4.946,19.988-22.169,17.712a44.062,44.062,0,0,0-8.053-.255Z" transform="translate(-74.728 -32.279)" fill="#d6e6f9"/>
    <path id="Path_55" data-name="Path 55" d="M701.429,387.476s2.188,26.991,7.295,37.933,5.836,18.237,5.836,18.237,18.135,38.29,38.3,43.316a6.4,6.4,0,0,1,4.785,4.72c.81,3.7-1.867,7.857-21.928,3.757,0,0-19.783-7.74-29.96-15.319a44.943,44.943,0,0,0-16.333-7.74c-7.018-1.671-14.531-5.748-12.065-15.625l8.024-11.672s-6.565-13.86-10.213-48.875S701.429,387.476,701.429,387.476Z" transform="translate(-74.728 -32.279)" opacity="0.03"/>
    <path id="Path_56" data-name="Path 56" d="M693.587,304.374a1.41,1.41,0,0,1-.131.394l-2.24,9.76-8.754,5.106-14.59-1.459-9.483-18.966a11.555,11.555,0,0,1,6.149-5.7c-1.131,4.939-3.334,19.7,10.628,20.294,16.778.729,18.237-10.942,18.237-10.942Z" transform="translate(-74.728 -32.279)" opacity="0.1"/>
    <path id="Path_57" data-name="Path 57" d="M588.36,302.128s59.088-2.188,76.6-8.754c0,0-6.565,21.155,10.213,21.884S693.4,304.316,693.4,304.316l5.106,42.31s5.836,26.991,5.106,35.015l2.918,16.048s-39.392,13.131-43.769,4.377c0,0,2.918-40.851-8.754-49.6L619,370.7s-33.556,12.4-45.228,3.647S588.36,302.128,588.36,302.128Z" transform="translate(-74.728 -32.279)" fill="#94b6f0"/>
    <path id="Path_58" data-name="Path 58" d="M588.36,302.128s59.088-2.188,76.6-8.754c0,0-6.565,21.155,10.213,21.884S693.4,304.316,693.4,304.316l5.106,42.31s5.836,26.991,5.106,35.015l2.918,16.048s-39.392,13.131-43.769,4.377c0,0,2.918-40.851-8.754-49.6L619,370.7s-33.556,12.4-45.228,3.647S588.36,302.128,588.36,302.128Z" transform="translate(-74.728 -32.279)" opacity="0.03"/>
    <path id="Path_59" data-name="Path 59" d="M424.235,203.232a29.179,29.179,0,0,1-39.392,4.085,68.263,68.263,0,0,0,2.188-17.507s30.638-13.86,32.826,2.188A22.42,22.42,0,0,0,424.235,203.232Z" transform="translate(-74.728 -32.279)" opacity="0.1"/>
    <circle id="Ellipse_33" data-name="Ellipse 33" cx="29.179" cy="29.179" r="29.179" transform="translate(298.436 121.035)" fill="#feb7c5"/>
    <path id="Path_60" data-name="Path 60" d="M390.584,131.08a4.829,4.829,0,0,0-2.509,1.116c-.941.963-.948,2.466-1.313,3.764-.729,2.5-2.794,4.377-5.019,5.726s-4.669,2.349-6.74,3.917c-3.786,2.867-5.938,7.295-8.469,11.343a58.409,58.409,0,0,1-12.547,14.159c.729,1.641,3.3,1.16,4.727,2.254,1.729,1.32.985,4.049,0,5.989s-1.962,4.5-.467,6.077a11.272,11.272,0,0,1,1.3,1.211c1.145,1.67-1.029,3.7-1.2,5.719s1.6,3.531,3.385,4.377,3.793,1.357,5.106,2.787c-1.313,1.816-2.677,4.143-1.678,6.149,1.131,2.269,4.377,2.283,6.821,1.678a3.479,3.479,0,0,1,1.991-.109,4.552,4.552,0,0,1,1.459,1.218c2.779,2.728,8.243,1.576,9.68-2.05.781-1.97.467-4.173.547-6.288.131-3.356,1.306-6.565,1.729-9.921.729-5.639-.729-11.314-.824-17a1.766,1.766,0,0,1,.219-1.072,1.838,1.838,0,0,1,1.32-.562,81.15,81.15,0,0,0,9.461-1.838c2.407-.62,5.106-1.641,5.938-3.983a4.88,4.88,0,0,0,1.722,4.785,12.554,12.554,0,0,0,4.785,2.312c4.194,1.269,9.046,2.021,12.693-.4-.2,4.494-.372,9.133,1.218,13.342s5.435,7.908,9.928,7.871c1.809,0,4-1.255,3.647-3.027-.2-1.021-1.174-1.678-1.919-2.4-1.5-1.459-2.188-4.107-.729-5.588a20.141,20.141,0,0,1,2.05-1.386c1.838-1.459,1.97-4.129,1.867-6.456a104.242,104.242,0,0,0-1.634-14.312,23.285,23.285,0,0,0-.9-3.574,26.265,26.265,0,0,0-2.385-4.639l-7.1-11.8a14.246,14.246,0,0,0-3.253-4.136c-4.968-3.815-10.723.832-15.494-1.853-2.48-1.393-4.26-3.159-7.163-3.815A23.616,23.616,0,0,0,390.584,131.08Z" transform="translate(-74.728 -32.279)" opacity="0.1"/>
    <path id="Path_61" data-name="Path 61" d="M390.584,130.35a4.829,4.829,0,0,0-2.509,1.116c-.941.963-.948,2.466-1.313,3.764-.729,2.5-2.794,4.377-5.019,5.726s-4.669,2.349-6.74,3.917c-3.786,2.867-5.938,7.295-8.469,11.343a58.409,58.409,0,0,1-12.547,14.159c.729,1.641,3.3,1.16,4.727,2.254,1.729,1.32.985,4.049,0,5.989s-1.962,4.5-.467,6.077a11.273,11.273,0,0,1,1.3,1.211c1.145,1.67-1.029,3.7-1.2,5.719s1.6,3.531,3.385,4.377,3.793,1.357,5.106,2.787c-1.313,1.816-2.677,4.143-1.678,6.149,1.131,2.269,4.377,2.283,6.821,1.678a3.48,3.48,0,0,1,1.991-.109,4.553,4.553,0,0,1,1.459,1.218c2.779,2.728,8.243,1.576,9.68-2.05.781-1.97.467-4.173.547-6.288.131-3.356,1.306-6.565,1.729-9.921.729-5.639-.729-11.314-.824-17a1.766,1.766,0,0,1,.219-1.072,1.838,1.838,0,0,1,1.32-.562A81.153,81.153,0,0,0,397.565,169c2.407-.62,5.106-1.641,5.938-3.983a4.88,4.88,0,0,0,1.722,4.785,12.554,12.554,0,0,0,4.785,2.312c4.194,1.269,9.046,2.021,12.693-.4-.2,4.494-.372,9.133,1.218,13.342s5.435,7.908,9.928,7.871c1.809,0,4-1.255,3.647-3.027-.2-1.021-1.174-1.678-1.919-2.4-1.5-1.459-2.188-4.107-.729-5.588a20.149,20.149,0,0,1,2.05-1.386c1.838-1.459,1.97-4.129,1.867-6.456a104.242,104.242,0,0,0-1.634-14.312,23.285,23.285,0,0,0-.9-3.574,26.261,26.261,0,0,0-2.385-4.639l-7.1-11.8a14.246,14.246,0,0,0-3.253-4.136c-4.968-3.815-10.723.832-15.494-1.853-2.48-1.393-4.26-3.159-7.163-3.815A23.616,23.616,0,0,0,390.584,130.35Z" transform="translate(-74.728 -32.279)" fill="#8e6f80"/>
    <path id="Path_62" data-name="Path 62" d="M376.811,359.756l-10.942,7.295a115.419,115.419,0,0,0-14.057-20.71c-5.42-6.354-12.255-12.824-20.228-17.223-21.155-11.672,20.425-18.237,20.425-18.237a83.524,83.524,0,0,0,10.213,12.284c7.339,7.295,17.8,14.59,28.45,11.788C410.367,329.848,376.811,359.756,376.811,359.756Z" transform="translate(-74.728 -32.279)" fill="#ffbcc7"/>
    <rect id="Rectangle_36" data-name="Rectangle 36" width="45.228" height="15.319" transform="translate(321.78 285.897)" fill="#cccad6"/>
    <path id="Path_63" data-name="Path 63" d="M411.1,286.808s-6.565-14.59-10.213-18.966-4.377-19.7-4.377-19.7-4.377-26.991,8.754-32.826,9.483,33.556,9.483,33.556l-.729,5.836s19.7,18.237,18.966,32.1S411.1,286.808,411.1,286.808Z" transform="translate(-74.728 -32.279)" fill="#ffbcc7"/>
    <path id="Path_64" data-name="Path 64" d="M411.1,286.808s-6.565-14.59-10.213-18.966-4.377-19.7-4.377-19.7-4.377-26.991,8.754-32.826,9.483,33.556,9.483,33.556l-.729,5.836s19.7,18.237,18.966,32.1S411.1,286.808,411.1,286.808Z" transform="translate(-74.728 -32.279)" opacity="0.03"/>
    <path id="Path_65" data-name="Path 65" d="M364.41,325.471s6.565-2.918,8.024-7.295,19.7-2.188,19.7-2.188l21.884-4.377s5.836-8.754,0-13.131-5.836-13.86-5.836-13.86,20.25,0,25.036-5.194a4.377,4.377,0,0,0,.5-.642c3.647-5.836,18.966,48.145,18.966,48.145L416.2,319.635l-27.72,16.048S372.434,338.6,364.41,325.471Z" transform="translate(-74.728 -32.279)" opacity="0.1"/>
    <path id="Path_66" data-name="Path 66" d="M364.41,324.741s6.565-2.918,8.024-7.295,19.7-2.188,19.7-2.188l21.884-4.377s5.836-8.754,0-13.131-5.836-13.86-5.836-13.86,20.25,0,25.036-5.194a4.377,4.377,0,0,0,.5-.642c3.647-5.836,18.966,48.145,18.966,48.145L416.2,318.905l-27.72,16.048S372.434,337.872,364.41,324.741Z" transform="translate(-74.728 -32.279)" fill="#ff7f8e"/>
    <path id="Path_67" data-name="Path 67" d="M364.41,324.741s6.565-2.918,8.024-7.295,19.7-2.188,19.7-2.188l21.884-4.377s5.836-8.754,0-13.131-5.836-13.86-5.836-13.86,20.25,0,25.036-5.194a4.377,4.377,0,0,0,.5-.642c3.647-5.836,18.966,48.145,18.966,48.145L416.2,318.905l-27.72,16.048S372.434,337.872,364.41,324.741Z" transform="translate(-74.728 -32.279)" opacity="0.03"/>
    <path id="Path_68" data-name="Path 68" d="M478.778,366.613l-8.593-9.046,8.024-18.966h6.565S489,358.3,478.778,366.613Z" transform="translate(-74.728 -32.279)" opacity="0.1"/>
    <path id="Path_69" data-name="Path 69" d="M461.431,334.954l14.59-1.459s6.565,5.106,8.024,5.106c0,0,4.377,20.425-6.565,28.45s-24.8-7.295-24.8-7.295l-12.4-14.59Z" transform="translate(-74.728 -32.279)" fill="#cccad6"/>
    <path id="Path_70" data-name="Path 70" d="M684.651,410.82s-18.237-.729-40.851-8.754-18.966-26.991-18.966-26.991l-13.225-32.454-2.823-6.937,28.45-17.507s1.036,4.472,2.371,10.745c2.035,9.527,4.771,23.2,5.653,31.564,1.459,13.86,18.237,20.425,18.237,20.425l29.909,12.4s10.942-2.918,18.237,2.188S684.651,410.82,684.651,410.82Z" transform="translate(-74.728 -32.279)" fill="#ffbcc7"/>
    <path id="Path_71" data-name="Path 71" d="M421.827,306.322h7.185l-11.672,25.532-8.024,8.024-3.764-3.961Z" opacity="0.1"/>
    <g id="undraw_Mobile_app_re_catg" transform="matrix(0.629, 0, 0.389, 0.866, 316.281, 180.363)">
      <path id="Path_162" data-name="Path 162" d="M252.43,164.038H234.816a3.744,3.744,0,0,0-3.653,2.921l-8.9,39.476a3.026,3.026,0,0,0,2.8,3.688l18.107.892a4,4,0,0,0,4.131-3.282l5.049-27.91.376.107.966-5.29-.387-.1,1.409-7.791a2.305,2.305,0,0,0-2.288-2.716Z" transform="translate(-221.131 -157.739)" fill="#3f3d56"/>
      <path id="Path_163" data-name="Path 163" d="M259.1,175.664h-2.056a2.588,2.588,0,0,0-2.528,2.036l-8.543,39.154a1.6,1.6,0,0,0,1.462,1.942l18.049,1.183a2.077,2.077,0,0,0,2.179-1.7l7.29-40.469a1.819,1.819,0,0,0-1.79-2.141h-1.951a.858.858,0,0,0-.829.635h0a.758.758,0,0,1-.732.561h-9.26a1.3,1.3,0,0,1-1.292-1.2Z" transform="translate(-243.096 -168.514)" fill="#fff"/>
    </g>
    <path id="Path_72" data-name="Path 72" d="M622.645,252.523c0,10.213-36.474-9.483-36.474-9.483a13.734,13.734,0,0,1,.934-2.1c26.743,13.028,33.607,7.813,35.139,5.719a31.317,31.317,0,0,1,.4,5.865Z" transform="translate(-74.728 -32.279)" opacity="0.1"/>
    <path id="Path_73" data-name="Path 73" d="M568.664,263.465l10.942-8.024-21.884,42.31-2.043-8.878,1.131-2.188c14.692-10.213,12.5-19.7,11.467-22.439Z" transform="translate(-74.728 -32.279)" opacity="0.1"/>
    <path id="Path_74" data-name="Path 74" d="M639.605,328.921c-9.14,2.247-22.286,10.111-28,13.7l-2.823-6.937,28.45-17.507S638.292,322.648,639.605,328.921Z" transform="translate(-74.728 -32.279)" opacity="0.1"/>
    <path id="Path_75" data-name="Path 75" d="M500.822,333.495,476.75,377.264l17.507,10.942s19.4,7.419,37.006,4.085a149.576,149.576,0,0,1,17.508-2.24c3.713-.255,8.024-.729,12.474-1.459a34.643,34.643,0,0,0,27.72-25.357c4.493-17.113,10.738-43.411,9.148-52.034a7.924,7.924,0,0,0-.263-1.065l7.295,21.884,3.647,10.942s26.261-17.507,36.474-16.048c0,0-12.4-34.285-13.86-48.875s-8.754-31.368-8.754-31.368-3.647,10.942-37.2-5.836l-16.778,22.614s6.565,11.672-12.4,24.073L535.115,336.4Z" transform="translate(-74.728 -32.279)" fill="#94b6f0"/>
    <path id="Path_76" data-name="Path 76" d="M362.222,324.012a29.07,29.07,0,0,1-10.41,22.329c-5.42-6.354-12.255-12.824-20.228-17.223-21.155-11.672,20.425-18.237,20.425-18.237a83.524,83.524,0,0,0,10.213,12.284C362.215,323.443,362.222,323.727,362.222,324.012Z" transform="translate(-74.728 -32.279)" opacity="0.1"/>
    <circle id="Ellipse_34" data-name="Ellipse 34" cx="29.179" cy="29.179" r="29.179" transform="translate(227.677 262.553)" fill="#ffbcc7"/>
    <path id="Path_77" data-name="Path 77" d="M504.47,390.394s-8.024,2.188-35.744-4.377-45.957-2.188-53.252,0-32.826-1.459-47.416-5.106-16.048-25.532-16.048-25.532c5.106.729,27.72-20.425,27.72-20.425,13.131-11.672,37.2-11.672,37.2-11.672l9.352,1.678,39.523,7.076,4.545,6.864Z" transform="translate(-74.728 -32.279)" opacity="0.1"/>
    <path id="Path_78" data-name="Path 78" d="M503.74,391.124s-8.024,2.188-35.744-4.377-45.957-2.188-53.252,0-32.826-1.459-47.416-5.106-16.048-25.532-16.048-25.532c5.106.729,27.72-20.425,27.72-20.425,13.131-11.672,37.2-11.672,37.2-11.672l9.352,1.678,39.523,7.076,4.545,6.864Z" transform="translate(-74.728 -32.279)" fill="#ff7f8e"/>
    <path id="Path_79" data-name="Path 79" d="M469.623,339.63l-57.8,41.281c-16.6,5.632-26.451,2.473-32.3-3.261-10.942-10.76-7.295-29.31,6.7-35.671a59.977,59.977,0,0,1,19.039-4.836l20.294-11.453,39.523,7.076Z" transform="translate(-74.728 -32.279)" opacity="0.1"/>
    <path id="Path_80" data-name="Path 80" d="M488.115,338.6a4.267,4.267,0,0,0,5.048,0" transform="translate(-74.728 -32.279)" opacity="0.1"/>
    <path id="Path_95" data-name="Path 95" d="M463.619,281.7c0,5.106-17.507,8.024-17.507,8.024l-2.473-4.377-18.682-32.826s-11.672-29.179,0-33.556,13.131,29.179,13.131,29.179,16.778,18.7,23.132,28.5C462.707,278.93,463.619,280.739,463.619,281.7Z" transform="translate(-74.728 -32.279)" fill="#ffbcc7"/>
    <path id="Path_96" data-name="Path 96" d="M463.619,281.7c0,5.106-17.507,8.024-17.507,8.024l-2.473-4.377c6.522-.212,14.823-6.492,17.58-8.754C462.707,278.93,463.619,280.739,463.619,281.7Z" transform="translate(-74.728 -32.279)" opacity="0.1"/>
    <path id="Path_97" data-name="Path 97" d="M378.8,375.454c5.836,5.734,15.706,8.892,32.3,3.261L477.479,331.3s9.483-5.106,0-27.72-15.319-26.261-15.319-26.261-11.672,10.213-19.7,9.483l7.295,22.614-45.228,25.532a60.007,60.007,0,0,0-19.039,4.836C371.493,346.151,367.824,364.7,378.8,375.454Z" transform="translate(-74.728 -32.279)" fill="#ff7f8e"/>
    <path id="Path_98" data-name="Path 98" d="M306.249,295.139c-4.836,2.1-6.879,7.813-10.76,11.387s-9.542,4.807-14.5,6.9-9.987,6.135-9.935,11.526,5.347,10.125,4.45,15.5c-.46,2.765-2.517,5.063-2.991,7.82-.518,2.976.912,5.989,2.86,8.3,5.311,6.3,13.9,8.469,21.8,10.811s16.413,5.836,19.973,13.262c.948,1.984,1.459,4.136,2.342,6.157,3.042,7.142,10.023,12.014,17.42,14.371s15.319,2.546,23.051,2.714c2.845.058,5.836.1,8.4-1.058s4.734-3.888,4.246-6.689c-.379-2.188-2.188-3.815-3.8-5.325-3.159-2.918-6.179-6.179-7.769-10.213s-1.5-8.9,1.182-12.263c3.181-3.983,8.878-4.8,13.021-7.769,7.433-5.325,7.506-18.12.146-23.533-2.619-1.926-5.8-2.918-8.644-4.486-8.557-4.712-13.444-14.137-21.257-20-6.208-4.661-13.809-6.733-20.425-10.665C318.927,298.276,314.521,291.55,306.249,295.139Z" transform="translate(-74.728 -32.279)" opacity="0.1"/>
    <path id="Path_99" data-name="Path 99" d="M304.79,295.139c-4.836,2.1-6.879,7.813-10.76,11.387s-9.542,4.807-14.5,6.9-9.987,6.135-9.935,11.526,5.347,10.125,4.45,15.5c-.46,2.765-2.517,5.063-2.991,7.82-.518,2.976.912,5.989,2.86,8.3,5.311,6.3,13.9,8.469,21.8,10.811s16.413,5.836,19.973,13.262c.948,1.984,1.459,4.136,2.342,6.157,3.042,7.142,10.023,12.014,17.42,14.371s15.319,2.546,23.051,2.714c2.845.058,5.836.1,8.4-1.058s4.734-3.888,4.246-6.689c-.379-2.188-2.188-3.815-3.8-5.325-3.159-2.918-6.179-6.179-7.769-10.213s-1.5-8.9,1.182-12.263c3.181-3.983,8.878-4.8,13.021-7.769,7.433-5.325,7.506-18.12.146-23.533-2.619-1.926-5.8-2.918-8.644-4.486-8.557-4.712-13.444-14.137-21.257-20-6.208-4.661-13.809-6.733-20.425-10.665C317.468,298.276,313.062,291.55,304.79,295.139Z" transform="translate(-74.728 -32.279)" fill="#ad5975"/>
    <path id="Path_101" data-name="Path 101" d="M112.879,429.5l26.239,51.567-60.97,30.813L39.122,439.422Z" fill="none"/>
  </g>
</svg>
